<?xml version="1.0" encoding="UTF-8" standalone="no"?>
<!-- Generator: Adobe Illustrator 21.1.0, SVG Export Plug-In . SVG Version: 6.00 Build 0)  -->

<svg
   xmlns:dc="http://purl.org/dc/elements/1.1/"
   xmlns:cc="http://creativecommons.org/ns#"
   xmlns:rdf="http://www.w3.org/1999/02/22-rdf-syntax-ns#"
   xmlns:svg="http://www.w3.org/2000/svg"
   xmlns="http://www.w3.org/2000/svg"
   xmlns:xlink="http://www.w3.org/1999/xlink"
   xmlns:sodipodi="http://sodipodi.sourceforge.net/DTD/sodipodi-0.dtd"
   xmlns:inkscape="http://www.inkscape.org/namespaces/inkscape"
   version="1.1"
   id="Layer_3_copy_2"
   x="0px"
   y="0px"
   viewBox="0 0 900 663.79077"
   xml:space="preserve"
   inkscape:version="0.91 r13725"
   sodipodi:docname="logo.svg"
   width="900"
   height="663.79077"><metadata
     id="metadata3466"><rdf:RDF><cc:Work
         rdf:about=""><dc:format>image/svg+xml</dc:format><dc:type
           rdf:resource="http://purl.org/dc/dcmitype/StillImage" /><dc:title></dc:title></cc:Work></rdf:RDF></metadata><defs
     id="defs3464" /><sodipodi:namedview
     pagecolor="#ffffff"
     bordercolor="#666666"
     borderopacity="1"
     objecttolerance="10"
     gridtolerance="10"
     guidetolerance="10"
     inkscape:pageopacity="0"
     inkscape:pageshadow="2"
     inkscape:window-width="1916"
     inkscape:window-height="1055"
     id="namedview3462"
     showgrid="false"
     fit-margin-top="0"
     fit-margin-left="0"
     fit-margin-right="0"
     fit-margin-bottom="0"
     inkscape:zoom="0.70317841"
     inkscape:cx="451.76823"
     inkscape:cy="290.2141"
     inkscape:window-x="0"
     inkscape:window-y="21"
     inkscape:window-maximized="0"
     inkscape:current-layer="Layer_3_copy_2" /><style
     type="text/css"
     id="style3356">
	.st0{opacity:0.3;}
	.st1{fill:#F2F2F2;}
	.st2{fill:#0071BC;}
	.st3{clip-path:url(#SVGID_2_);fill:#004A7A;}
	.st4{fill:none;stroke:#FFFFFF;stroke-width:20;stroke-linecap:round;stroke-miterlimit:10;}
	.st5{fill:#004A7A;}
</style><path
     class="st0"
     d="m 365.3,606.79079 -336.8,0 c -15.7,0 -28.5,12.8 -28.5,28.5 l 0,0 c 0,15.7 12.8,28.5 28.5,28.5 l 336.8,0 c 15.7,0 28.5,-12.8 28.5,-28.5 l 0,0 c 0,-15.7 -12.8,-28.5 -28.5,-28.5 z"
     id="path3358"
     inkscape:connector-curvature="0"
     style="opacity:0.3" /><path
     class="st1"
     d="m 10.3,636.59079 291.7,0 c 32.9,0 64.7,-12.1 89.3,-34.1 l 51.5,-46 c 24,-21.4 43.7,-47.2 58.1,-76 l 18.6,-37.1 c 10.5,-21.1 24.4,-40.3 41,-56.9 l 87.4,-87.4 54.3,-55.7 c 1.4,-1.5 1.5,-3.8 0.1,-5.3 l -21.7,-24.1 c -1.5,-1.7 -4.1,-1.7 -5.6,-0.1 l -18.2,18.2 -656.8,348.3 0,46 c 0,5.6 4.6,10.2 10.3,10.2 z"
     id="path3360"
     inkscape:connector-curvature="0"
     style="fill:#f2f2f2" /><path
     class="st2"
     d="m 0,607.49079 243.1,0 c 60.5,0 118.4,-24 161.2,-66.8 l 0,0 c 30.3,-30.3 55.5,-65.3 74.7,-103.6 l 19.9,-39.9 c 4.9,-9.8 11.3,-18.7 19.1,-26.5 l 100.8,-100.8 56.3,-56.3 -21.8,-43.6 C 630.9,125.29079 594.7,88.990789 550,66.690789 l -27.3,-13.7 c -10.8,-5.4 -20.6,-12.5 -29.2,-21 L 463.9,2.3907893 c -5.1,-5.1 -13.8,-1.50000003 -13.8,5.7 l 0.2,91.0999997 -0.1,16.900001 c -0.1,26.4 -10.6,51.7 -29.3,70.4 l 0,0 c -17.4,17.4 -40.7,27.8 -65.3,29.2 l 0,0 c -11.4,0.6 -10.1,-31.3 -18,-39.6 l -28.2,-13 c -5.7,-6 -32.8,-5.7 -41.1,-5.5 l 0,0 c -24,0.5 -43.3,20.1 -43.3,44.2 l 0,157.4 c 0,14.8 -5.9,29 -16.3,39.4 l -30.6,30.6 c -6.1,6.1 -13.6,10.7 -21.8,13.5 l -95.3,32 c -36.5,12.2 -61,46.3 -61,84.7 l 0,48.1 z"
     id="path3362"
     inkscape:connector-curvature="0"
     style="fill:#0071bc" /><g
     id="g3364"
     transform="translate(0,-93.709211)"><defs
       id="defs3366"><path
         id="SVGID_1_"
         d="m 0,701.2 243.1,0 c 60.5,0 118.4,-24 161.2,-66.8 l 0,0 c 30.3,-30.3 55.5,-65.3 74.7,-103.6 l 19.9,-39.9 c 4.9,-9.8 11.3,-18.7 19.1,-26.5 L 618.8,363.6 675.1,307.3 653.3,263.7 C 630.9,219 594.7,182.7 550,160.4 l -27.3,-13.7 c -10.8,-5.4 -20.6,-12.5 -29.2,-21 L 463.9,96.1 c -5.1,-5.1 -13.8,-1.5 -13.8,5.7 l 0.2,91.1 -0.1,16.9 c -0.1,26.4 -10.6,51.7 -29.3,70.4 l 0,0 c -17.4,17.4 -40.7,27.8 -65.3,29.2 l 0,0 c -11.4,0.6 -22.5,-3.8 -30.4,-12.1 l -34.9,-36.8 c -5.7,-6 -13.6,-9.3 -21.9,-9.1 l 0,0 c -24,0.5 -43.3,20.1 -43.3,44.2 l 0,157.4 c 0,14.8 -5.9,29 -16.3,39.4 L 178.2,523 c -6.1,6.1 -13.6,10.7 -21.8,13.5 L 61,568.4 C 24.5,580.6 0,614.7 0,653.1 l 0,48.1 z"
         inkscape:connector-curvature="0" /></defs><clipPath
       id="SVGID_2_"><use
         xlink:href="#SVGID_1_"
         style="overflow:visible"
         id="use3370"
         x="0"
         y="0"
         width="100%"
         height="100%" /></clipPath><path
       class="st3"
       d="m 337.5,250 0,0 c -0.3,76.1 -18.6,151.1 -53.3,218.8 l -3.2,6.3 16.9,-21.6 C 343.2,395.7 365.4,323.2 360.3,250 l 0,0 -22.8,0 z"
       id="path3372"
       clip-path="url(#SVGID_2_)"
       inkscape:connector-curvature="0"
       style="fill:#004a7a" /></g><line
     class="st4"
     x1="225"
     y1="269.99081"
     x2="367.5"
     y2="269.7908"
     id="line3374"
     style="fill:none;stroke:#ffffff;stroke-width:20;stroke-linecap:round;stroke-miterlimit:10" /><line
     class="st4"
     x1="225"
     y1="326.39081"
     x2="337.5"
     y2="326.1908"
     id="line3376"
     style="fill:none;stroke:#ffffff;stroke-width:20;stroke-linecap:round;stroke-miterlimit:10" /><g
     id="g3378"
     transform="translate(0,-93.709211)"><path
       class="st2"
       d="m 724,330.9 c -17.2,0 -31.2,14 -31.2,31.2 l 0,31.2 c 0,17.2 14,31.2 31.2,31.2 17.2,0 31.2,-14 31.2,-31.2 l 0,-31.2 c 0,-17.3 -14,-31.2 -31.2,-31.2 z m 13.5,62.3 c 0,7.4 -6.1,13.5 -13.5,13.5 -7.4,0 -13.5,-6.1 -13.5,-13.5 l 0,-31.2 c 0,-7.4 6.1,-13.5 13.5,-13.5 7.4,0 13.5,6.1 13.5,13.5 l 0,31.2 z"
       id="path3380"
       inkscape:connector-curvature="0"
       style="fill:#0071bc" /><path
       class="st2"
       d="m 868.8,330.9 c -17.2,0 -31.2,14 -31.2,31.2 l 0,31.2 c 0,17.2 14,31.2 31.2,31.2 17.2,0 31.2,-14 31.2,-31.2 l 0,-31.2 c 0,-17.3 -14,-31.2 -31.2,-31.2 z m 13.5,62.3 c 0,7.4 -6.1,13.5 -13.5,13.5 -7.4,0 -13.5,-6.1 -13.5,-13.5 l 0,-31.2 c 0,-7.4 6.1,-13.5 13.5,-13.5 7.4,0 13.5,6.1 13.5,13.5 l 0,31.2 z"
       id="path3382"
       inkscape:connector-curvature="0"
       style="fill:#0071bc" /><g
       id="g3384"><rect
         x="766.79999"
         y="337.5"
         class="st2"
         width="19.6"
         height="80.300003"
         id="rect3386"
         style="fill:#0071bc" /></g><g
       id="g3388"><rect
         x="803"
         y="337.5"
         class="st2"
         width="19.6"
         height="80.300003"
         id="rect3390"
         style="fill:#0071bc" /></g></g><g
     id="g3392"
     transform="translate(0,-93.709211)"><path
       class="st2"
       d="m 501,632 c -17.2,0 -31.2,14 -31.2,31.2 l 0,31.2 c 0,17.2 14,31.2 31.2,31.2 17.2,0 31.2,-14 31.2,-31.2 l 0,-31.2 c 0,-17.3 -14,-31.2 -31.2,-31.2 z m 13.5,62.4 c 0,7.4 -6.1,13.5 -13.5,13.5 -7.4,0 -13.5,-6.1 -13.5,-13.5 l 0,-31.2 c 0,-7.4 6.1,-13.5 13.5,-13.5 7.4,0 13.5,6.1 13.5,13.5 l 0,31.2 z"
       id="path3394"
       inkscape:connector-curvature="0"
       style="fill:#0071bc" /><path
       class="st2"
       d="m 642.5,632 c -17.2,0 -31.2,14 -31.2,31.2 l 0,31.2 c 0,17.2 14,31.2 31.2,31.2 17.2,0 31.2,-14 31.2,-31.2 l 0,-31.2 c 0,-17.3 -14,-31.2 -31.2,-31.2 z m 13.5,62.4 c 0,7.4 -6.1,13.5 -13.5,13.5 -7.4,0 -13.5,-6.1 -13.5,-13.5 l 0,-31.2 c 0,-7.4 6.1,-13.5 13.5,-13.5 7.4,0 13.5,6.1 13.5,13.5 l 0,31.2 z"
       id="path3396"
       inkscape:connector-curvature="0"
       style="fill:#0071bc" /><g
       id="g3398"><rect
         x="543.79999"
         y="638.59998"
         class="st2"
         width="19.6"
         height="80.300003"
         id="rect3400"
         style="fill:#0071bc" /></g><g
       id="g3402"><rect
         x="580.09998"
         y="638.59998"
         class="st2"
         width="19.6"
         height="80.300003"
         id="rect3404"
         style="fill:#0071bc" /></g><path
       class="st2"
       d="M 797.2,632 C 780,632 766,646 766,663.2 l 0,31.2 c 0,17.2 14,31.2 31.2,31.2 17.2,0 31.2,-14 31.2,-31.2 l 0,-31.2 c 0,-17.3 -13.9,-31.2 -31.2,-31.2 z m 13.5,62.4 c 0,7.4 -6.1,13.5 -13.5,13.5 -7.4,0 -13.5,-6.1 -13.5,-13.5 l 0,-31.2 c 0,-7.4 6.1,-13.5 13.5,-13.5 7.4,0 13.5,6.1 13.5,13.5 l 0,31.2 z"
       id="path3406"
       inkscape:connector-curvature="0"
       style="fill:#0071bc" /><path
       class="st2"
       d="m 719.9,632 c -17.2,0 -31.2,14 -31.2,31.2 l 0,31.2 c 0,17.2 14,31.2 31.2,31.2 17.2,0 31.2,-14 31.2,-31.2 l 0,-31.2 C 751,645.9 737.1,632 719.9,632 Z m 13.4,62.4 c 0,7.4 -6.1,13.5 -13.5,13.5 -7.4,0 -13.5,-6.1 -13.5,-13.5 l 0,-31.2 c 0,-7.4 6.1,-13.5 13.5,-13.5 7.4,0 13.5,6.1 13.5,13.5 l 0,31.2 z"
       id="path3408"
       inkscape:connector-curvature="0"
       style="fill:#0071bc" /><g
       id="g3410"><rect
         x="880.40002"
         y="638.59998"
         class="st2"
         width="19.6"
         height="80.300003"
         id="rect3412"
         style="fill:#0071bc" /></g><g
       id="g3414"><rect
         x="843.40002"
         y="638.59998"
         class="st2"
         width="19.6"
         height="80.300003"
         id="rect3416"
         style="fill:#0071bc" /></g></g><g
     id="g3418"
     transform="translate(0,-93.709211)"><path
       class="st2"
       d="m 544.1,531.7 c -17.2,0 -31.2,14 -31.2,31.2 l 0,31.2 c 0,17.2 14,31.2 31.2,31.2 17.2,0 31.2,-14 31.2,-31.2 l 0,-31.2 c 0,-17.2 -13.9,-31.2 -31.2,-31.2 z m 13.5,62.4 c 0,7.4 -6.1,13.5 -13.5,13.5 -7.4,0 -13.5,-6.1 -13.5,-13.5 l 0,-31.2 c 0,-7.4 6.1,-13.5 13.5,-13.5 7.4,0 13.5,6.1 13.5,13.5 l 0,31.2 z"
       id="path3420"
       inkscape:connector-curvature="0"
       style="fill:#0071bc" /><path
       class="st2"
       d="m 694,531.7 c -17.2,0 -31.2,14 -31.2,31.2 l 0,31.2 c 0,17.2 14,31.2 31.2,31.2 17.2,0 31.2,-14 31.2,-31.2 l 0,-31.2 c -0.1,-17.2 -14,-31.2 -31.2,-31.2 z m 13.5,62.4 c 0,7.4 -6.1,13.5 -13.5,13.5 -7.4,0 -13.5,-6.1 -13.5,-13.5 l 0,-31.2 c 0,-7.4 6.1,-13.5 13.5,-13.5 7.4,0 13.5,6.1 13.5,13.5 l 0,31.2 z"
       id="path3422"
       inkscape:connector-curvature="0"
       style="fill:#0071bc" /><g
       id="g3424"><rect
         x="592"
         y="538.29999"
         class="st2"
         width="19.6"
         height="80.300003"
         id="rect3426"
         style="fill:#0071bc" /></g><g
       id="g3428"><rect
         x="628.20001"
         y="538.29999"
         class="st2"
         width="19.6"
         height="80.300003"
         id="rect3430"
         style="fill:#0071bc" /></g><g
       id="g3432"><rect
         x="777"
         y="538.29999"
         class="st2"
         width="19.6"
         height="80.300003"
         id="rect3434"
         style="fill:#0071bc" /></g><g
       id="g3436"><rect
         x="740"
         y="538.29999"
         class="st2"
         width="19.6"
         height="80.300003"
         id="rect3438"
         style="fill:#0071bc" /></g><g
       id="g3440"><rect
         x="813.20001"
         y="538.29999"
         class="st2"
         width="19.6"
         height="80.300003"
         id="rect3442"
         style="fill:#0071bc" /></g><g
       id="g3444"><rect
         x="853"
         y="538.29999"
         class="st2"
         width="19.6"
         height="80.300003"
         id="rect3446"
         style="fill:#0071bc" /></g></g><g
     id="g3448"
     transform="translate(0,-93.709211)"><path
       class="st2"
       d="m 627,431.2 c -17.2,0 -31.2,14 -31.2,31.2 l 0,31.2 c 0,17.2 14,31.2 31.2,31.2 17.2,0 31.2,-14 31.2,-31.2 l 0,-31.2 c 0,-17.2 -14,-31.2 -31.2,-31.2 z m 13.5,62.4 c 0,7.4 -6.1,13.5 -13.5,13.5 -7.4,0 -13.5,-6.1 -13.5,-13.5 l 0,-31.2 c 0,-7.4 6.1,-13.5 13.5,-13.5 7.4,0 13.5,6.1 13.5,13.5 l 0,31.2 z"
       id="path3450"
       inkscape:connector-curvature="0"
       style="fill:#0071bc" /><path
       class="st2"
       d="m 813,431.2 c -17.2,0 -31.2,14 -31.2,31.2 l 0,31.2 c 0,17.2 14,31.2 31.2,31.2 17.2,0 31.2,-14 31.2,-31.2 l 0,-31.2 c 0,-17.2 -14,-31.2 -31.2,-31.2 z m 13.5,62.4 c 0,7.4 -6.1,13.5 -13.5,13.5 -7.4,0 -13.5,-6.1 -13.5,-13.5 l 0,-31.2 c 0,-7.4 6.1,-13.5 13.5,-13.5 7.4,0 13.5,6.1 13.5,13.5 l 0,31.2 z"
       id="path3452"
       inkscape:connector-curvature="0"
       style="fill:#0071bc" /><path
       class="st2"
       d="m 735.6,431.2 c -17.2,0 -31.2,14 -31.2,31.2 l 0,31.2 c 0,17.2 14,31.2 31.2,31.2 17.2,0 31.2,-14 31.2,-31.2 l 0,-31.2 c 0,-17.2 -14,-31.2 -31.2,-31.2 z m 13.5,62.4 c 0,7.4 -6.1,13.5 -13.5,13.5 -7.4,0 -13.5,-6.1 -13.5,-13.5 l 0,-31.2 c 0,-7.4 6.1,-13.5 13.5,-13.5 7.4,0 13.5,6.1 13.5,13.5 l 0,31.2 z"
       id="path3454"
       inkscape:connector-curvature="0"
       style="fill:#0071bc" /><g
       id="g3456"><rect
         x="673.20001"
         y="437.79999"
         class="st2"
         width="19.6"
         height="80.300003"
         id="rect3458"
         style="fill:#0071bc" /></g></g><path
     class="st5"
     d="m 261.4,158.49079 c 61.9,-14.7 106.6,6.7 97,58.4 -9.6,51.7 -28.5,34.3 -24.2,-6 4.3,-40.3 -43.2,-56.2 -72.8,-52.4 z"
     id="path3460"
     inkscape:connector-curvature="0"
     style="fill:#004a7a" /></svg>