<?xml version="1.0" encoding="utf-8"?>
<!-- Generator: Adobe Illustrator 21.1.0, SVG Export Plug-In . SVG Version: 6.00 Build 0)  -->
<svg version="1.1" id="Layer_3_copy_2" xmlns="http://www.w3.org/2000/svg" xmlns:xlink="http://www.w3.org/1999/xlink" x="0px"
	 y="0px" viewBox="0 0 900 900" style="enable-background:new 0 0 900 900;" xml:space="preserve">
<style type="text/css">
	.st0{opacity:0.3;}
	.st1{fill:#F2F2F2;}
	.st2{fill:#0071BC;}
	.st3{clip-path:url(#SVGID_2_);fill:#004A7A;}
	.st4{fill:none;stroke:#FFFFFF;stroke-width:20;stroke-linecap:round;stroke-miterlimit:10;}
	.st5{fill:#004A7A;}
</style>
<path class="st0" d="M365.3,700.5H28.5C12.8,700.5,0,713.3,0,729v0c0,15.7,12.8,28.5,28.5,28.5h336.8c15.7,0,28.5-12.8,28.5-28.5v0
	C393.8,713.3,381,700.5,365.3,700.5z"/>
<path class="st1" d="M10.3,730.3H302c32.9,0,64.7-12.1,89.3-34.1l51.5-46c24-21.4,43.7-47.2,58.1-76l18.6-37.1
	c10.5-21.1,24.4-40.3,41-56.9l87.4-87.4l54.3-55.7c1.4-1.5,1.5-3.8,0.1-5.3l-21.7-24.1c-1.5-1.7-4.1-1.7-5.6-0.1l-18.2,18.2L0,674.1
	v46C0,725.7,4.6,730.3,10.3,730.3z"/>
<path class="st2" d="M0,701.2h243.1c60.5,0,118.4-24,161.2-66.8l0,0c30.3-30.3,55.5-65.3,74.7-103.6l19.9-39.9
	c4.9-9.8,11.3-18.7,19.1-26.5l100.8-100.8l56.3-56.3l-21.8-43.6c-22.4-44.7-58.6-81-103.3-103.3l-27.3-13.7
	c-10.8-5.4-20.6-12.5-29.2-21l-29.6-29.6c-5.1-5.1-13.8-1.5-13.8,5.7l0.2,91.1l-0.1,16.9c-0.1,26.4-10.6,51.7-29.3,70.4l0,0
	c-17.4,17.4-40.7,27.8-65.3,29.2h0c-11.4,0.6-10.1-31.3-18-39.6l-28.2-13c-5.7-6-32.8-5.7-41.1-5.5h0c-24,0.5-43.3,20.1-43.3,44.2
	v157.4c0,14.8-5.9,29-16.3,39.4l-30.6,30.6c-6.1,6.1-13.6,10.7-21.8,13.5L61,568.4c-36.5,12.2-61,46.3-61,84.7V701.2z"/>
<g>
	<defs>
		<path id="SVGID_1_" d="M0,701.2h243.1c60.5,0,118.4-24,161.2-66.8l0,0c30.3-30.3,55.5-65.3,74.7-103.6l19.9-39.9
			c4.9-9.8,11.3-18.7,19.1-26.5l100.8-100.8l56.3-56.3l-21.8-43.6c-22.4-44.7-58.6-81-103.3-103.3l-27.3-13.7
			c-10.8-5.4-20.6-12.5-29.2-21l-29.6-29.6c-5.1-5.1-13.8-1.5-13.8,5.7l0.2,91.1l-0.1,16.9c-0.1,26.4-10.6,51.7-29.3,70.4l0,0
			c-17.4,17.4-40.7,27.8-65.3,29.2h0c-11.4,0.6-22.5-3.8-30.4-12.1l-34.9-36.8c-5.7-6-13.6-9.3-21.9-9.1h0
			c-24,0.5-43.3,20.1-43.3,44.2v157.4c0,14.8-5.9,29-16.3,39.4l-30.6,30.6c-6.1,6.1-13.6,10.7-21.8,13.5L61,568.4
			c-36.5,12.2-61,46.3-61,84.7V701.2z"/>
	</defs>
	<clipPath id="SVGID_2_">
		<use xlink:href="#SVGID_1_"  style="overflow:visible;"/>
	</clipPath>
	<path class="st3" d="M337.5,250L337.5,250c-0.3,76.1-18.6,151.1-53.3,218.8l-3.2,6.3l16.9-21.6c45.3-57.8,67.5-130.3,62.4-203.5v0
		H337.5z"/>
</g>
<line class="st4" x1="225" y1="363.7" x2="367.5" y2="363.5"/>
<line class="st4" x1="225" y1="420.1" x2="337.5" y2="419.9"/>
<g>
	<path class="st2" d="M724,330.9c-17.2,0-31.2,14-31.2,31.2v31.2c0,17.2,14,31.2,31.2,31.2c17.2,0,31.2-14,31.2-31.2v-31.2
		C755.2,344.8,741.2,330.9,724,330.9z M737.5,393.2c0,7.4-6.1,13.5-13.5,13.5c-7.4,0-13.5-6.1-13.5-13.5v-31.2
		c0-7.4,6.1-13.5,13.5-13.5c7.4,0,13.5,6.1,13.5,13.5V393.2z"/>
	<path class="st2" d="M868.8,330.9c-17.2,0-31.2,14-31.2,31.2v31.2c0,17.2,14,31.2,31.2,31.2c17.2,0,31.2-14,31.2-31.2v-31.2
		C900,344.8,886,330.9,868.8,330.9z M882.3,393.2c0,7.4-6.1,13.5-13.5,13.5c-7.4,0-13.5-6.1-13.5-13.5v-31.2
		c0-7.4,6.1-13.5,13.5-13.5c7.4,0,13.5,6.1,13.5,13.5V393.2z"/>
	<g>
		<rect x="766.8" y="337.5" class="st2" width="19.6" height="80.3"/>
	</g>
	<g>
		<rect x="803" y="337.5" class="st2" width="19.6" height="80.3"/>
	</g>
</g>
<g>
	<path class="st2" d="M501,632c-17.2,0-31.2,14-31.2,31.2v31.2c0,17.2,14,31.2,31.2,31.2c17.2,0,31.2-14,31.2-31.2v-31.2
		C532.2,645.9,518.2,632,501,632z M514.5,694.4c0,7.4-6.1,13.5-13.5,13.5c-7.4,0-13.5-6.1-13.5-13.5v-31.2c0-7.4,6.1-13.5,13.5-13.5
		c7.4,0,13.5,6.1,13.5,13.5V694.4z"/>
	<path class="st2" d="M642.5,632c-17.2,0-31.2,14-31.2,31.2v31.2c0,17.2,14,31.2,31.2,31.2c17.2,0,31.2-14,31.2-31.2v-31.2
		C673.7,645.9,659.7,632,642.5,632z M656,694.4c0,7.4-6.1,13.5-13.5,13.5c-7.4,0-13.5-6.1-13.5-13.5v-31.2c0-7.4,6.1-13.5,13.5-13.5
		c7.4,0,13.5,6.1,13.5,13.5V694.4z"/>
	<g>
		<rect x="543.8" y="638.6" class="st2" width="19.6" height="80.3"/>
	</g>
	<g>
		<rect x="580.1" y="638.6" class="st2" width="19.6" height="80.3"/>
	</g>
	<path class="st2" d="M797.2,632c-17.2,0-31.2,14-31.2,31.2v31.2c0,17.2,14,31.2,31.2,31.2c17.2,0,31.2-14,31.2-31.2v-31.2
		C828.4,645.9,814.5,632,797.2,632z M810.7,694.4c0,7.4-6.1,13.5-13.5,13.5c-7.4,0-13.5-6.1-13.5-13.5v-31.2
		c0-7.4,6.1-13.5,13.5-13.5c7.4,0,13.5,6.1,13.5,13.5V694.4z"/>
	<path class="st2" d="M719.9,632c-17.2,0-31.2,14-31.2,31.2v31.2c0,17.2,14,31.2,31.2,31.2c17.2,0,31.2-14,31.2-31.2v-31.2
		C751,645.9,737.1,632,719.9,632z M733.3,694.4c0,7.4-6.1,13.5-13.5,13.5c-7.4,0-13.5-6.1-13.5-13.5v-31.2c0-7.4,6.1-13.5,13.5-13.5
		c7.4,0,13.5,6.1,13.5,13.5V694.4z"/>
	<g>
		<rect x="880.4" y="638.6" class="st2" width="19.6" height="80.3"/>
	</g>
	<g>
		<rect x="843.4" y="638.6" class="st2" width="19.6" height="80.3"/>
	</g>
</g>
<g>
	<path class="st2" d="M544.1,531.7c-17.2,0-31.2,14-31.2,31.2v31.2c0,17.2,14,31.2,31.2,31.2c17.2,0,31.2-14,31.2-31.2v-31.2
		C575.3,545.7,561.4,531.7,544.1,531.7z M557.6,594.1c0,7.4-6.1,13.5-13.5,13.5c-7.4,0-13.5-6.1-13.5-13.5v-31.2
		c0-7.4,6.1-13.5,13.5-13.5c7.4,0,13.5,6.1,13.5,13.5V594.1z"/>
	<path class="st2" d="M694,531.7c-17.2,0-31.2,14-31.2,31.2v31.2c0,17.2,14,31.2,31.2,31.2c17.2,0,31.2-14,31.2-31.2v-31.2
		C725.1,545.7,711.2,531.7,694,531.7z M707.5,594.1c0,7.4-6.1,13.5-13.5,13.5c-7.4,0-13.5-6.1-13.5-13.5v-31.2
		c0-7.4,6.1-13.5,13.5-13.5c7.4,0,13.5,6.1,13.5,13.5V594.1z"/>
	<g>
		<rect x="592" y="538.3" class="st2" width="19.6" height="80.3"/>
	</g>
	<g>
		<rect x="628.2" y="538.3" class="st2" width="19.6" height="80.3"/>
	</g>
	<g>
		<rect x="777" y="538.3" class="st2" width="19.6" height="80.3"/>
	</g>
	<g>
		<rect x="740" y="538.3" class="st2" width="19.6" height="80.3"/>
	</g>
	<g>
		<rect x="813.2" y="538.3" class="st2" width="19.6" height="80.3"/>
	</g>
	<g>
		<rect x="853" y="538.3" class="st2" width="19.6" height="80.3"/>
	</g>
</g>
<g>
	<path class="st2" d="M627,431.2c-17.2,0-31.2,14-31.2,31.2v31.2c0,17.2,14,31.2,31.2,31.2c17.2,0,31.2-14,31.2-31.2v-31.2
		C658.2,445.2,644.2,431.2,627,431.2z M640.5,493.6c0,7.4-6.1,13.5-13.5,13.5c-7.4,0-13.5-6.1-13.5-13.5v-31.2
		c0-7.4,6.1-13.5,13.5-13.5c7.4,0,13.5,6.1,13.5,13.5V493.6z"/>
	<path class="st2" d="M813,431.2c-17.2,0-31.2,14-31.2,31.2v31.2c0,17.2,14,31.2,31.2,31.2c17.2,0,31.2-14,31.2-31.2v-31.2
		C844.2,445.2,830.2,431.2,813,431.2z M826.5,493.6c0,7.4-6.1,13.5-13.5,13.5c-7.4,0-13.5-6.1-13.5-13.5v-31.2
		c0-7.4,6.1-13.5,13.5-13.5c7.4,0,13.5,6.1,13.5,13.5V493.6z"/>
	<path class="st2" d="M735.6,431.2c-17.2,0-31.2,14-31.2,31.2v31.2c0,17.2,14,31.2,31.2,31.2c17.2,0,31.2-14,31.2-31.2v-31.2
		C766.8,445.2,752.8,431.2,735.6,431.2z M749.1,493.6c0,7.4-6.1,13.5-13.5,13.5c-7.4,0-13.5-6.1-13.5-13.5v-31.2
		c0-7.4,6.1-13.5,13.5-13.5c7.4,0,13.5,6.1,13.5,13.5V493.6z"/>
	<g>
		<rect x="673.2" y="437.8" class="st2" width="19.6" height="80.3"/>
	</g>
</g>
<path class="st5" d="M261.4,252.2c61.9-14.7,106.6,6.7,97,58.4c-9.6,51.7-28.5,34.3-24.2-6C338.5,264.3,291,248.4,261.4,252.2z"/>
</svg>
